<svg width="200" height="200" viewBox="0 0 200 200" xmlns="http://www.w3.org/2000/svg">
  <defs>
    <linearGradient id="grad3" x1="0%" y1="0%" x2="100%" y2="100%">
      <stop offset="0%" stop-color="#ffc409"/>
      <stop offset="100%" stop-color="#e6b008"/>
    </linearGradient>
  </defs>
  
  <circle cx="100" cy="100" r="90" fill="url(#grad3)" opacity="0.1"/>
  
  <!-- Escudo de confianza -->
  <path d="M100,50 L140,70 L140,110 C140,140 120,160 100,170 C80,160 60,140 60,110 L60,70 Z" 
        fill="white" stroke="#ffc409" stroke-width="3"/>
  
  <!-- Estrellas de rating -->
  <polygon points="100,85 103,92 111,93 105,98 106,106 100,102 94,106 95,98 89,93 97,92" 
           fill="#ffc409"/>
  <polygon points="80,100 83,107 91,108 85,113 86,121 80,117 74,121 75,113 69,108 77,107" 
           fill="#ffc409" opacity="0.7"/>
  <polygon points="120,100 123,107 131,108 125,113 126,121 120,117 114,121 115,113 109,108 117,107" 
           fill="#ffc409" opacity="0.7"/>
  
  <!-- Check mark -->
  <path d="M85,130 L95,140 L115,120" stroke="#2dd36f" stroke-width="4" fill="none" 
        stroke-linecap="round"/>
</svg>